<svg width="824" height="231" viewBox="0 0 824 231" fill="none" xmlns="http://www.w3.org/2000/svg">
<g clip-path="url(#clip0_595_130)">
<path d="M24.9736 218.448V97.5739H81.1514C114.796 97.5739 142.173 126.56 142.173 162.19C142.173 197.819 114.802 226.812 81.1514 226.812H34.9737C32.6252 226.812 24.9672 226.206 24.9672 218.448M66.263 94.5713H24.9736V11.6915C24.9736 3.41693 32.9379 3.00257 34.5333 3.00257H65.912C89.773 3.00257 109.18 23.4723 109.18 48.6276C109.18 73.7828 89.9326 94.5777 66.2694 94.5777M84.84 94.6223C106.34 87.833 120.903 69.5945 120.903 48.6276C120.903 21.8148 96.3972 0 66.2694 0H0.333984V3.00257H1.17636C3.52482 3.00257 11.1828 3.6273 11.1828 11.6915V218.448C11.1828 225.728 4.91602 226.812 1.17636 226.812H0.333984V229.814H81.9555C123.8 229.814 157.84 199.483 157.84 162.196C157.84 124.909 125.351 95.9801 84.8336 94.6223" fill="white"/>
<path d="M165.785 3.00257H166.647C173.347 3.00257 177.227 4.42416 177.227 11.6915V218.123C177.227 225.39 173.347 226.812 166.647 226.812H165.785V229.808H202.748V226.812H201.886C195.185 226.812 191.305 225.39 191.305 218.123V11.6915C191.305 4.42416 195.185 3.00257 201.886 3.00257H202.748V0H165.785V3.00257Z" fill="white"/>
<path d="M330.368 24.1672V155.56L263.577 155.604L330.368 24.1735V24.1672ZM318.926 3.00257H319.787C326.488 3.00257 330.368 4.42416 330.368 11.6915V15.9499L229.327 219.219C226.813 224.823 222.709 226.812 219.965 226.812H219.104V229.808H239.314V226.812H238.453C234.624 226.812 233.054 225.811 232.416 224.976C231.592 223.898 231.644 222.292 232.575 220.195L262.301 158.556H330.368V218.123C330.368 225.39 326.488 226.812 319.787 226.812H318.926V229.808H355.888V226.812H355.027C348.166 226.812 344.446 225.428 344.446 218.123V11.6915C344.446 4.38591 348.166 3.00257 355.027 3.00257H355.888V0H318.926V3.00257Z" fill="white"/>
<path d="M798.145 24.1672V155.56L731.355 155.604L798.145 24.1735V24.1672ZM721.5 174.5L728.796 160.698L730.072 158.556H798.139V218.123C798.139 225.39 794.259 226.812 787.558 226.812H786.696V229.808H823.659V226.812H822.798C815.937 226.812 812.217 225.428 812.217 218.123V11.6915C812.217 4.38591 815.937 3.00257 822.798 3.00257H823.659V0H786.696V3.00257H787.558C794.259 3.00257 798.139 4.42416 798.139 11.6915V15.9499L727.519 158.148" fill="white"/>
<path d="M505.073 226.812C505.009 226.812 498.391 226.276 494.754 219.022V9.90018C494.754 3.00257 497.217 3.00257 500.944 3.00257H501.806V0H484.339V3.00257H485.201C488.927 3.00257 491.391 3.00257 491.391 9.90018V211.678L397.555 11.1688C396.834 8.78458 397.051 6.90399 398.199 5.56527C400.12 3.33406 404.236 3.00257 406.521 3.00257H407.383V0H370.42V3.00257H371.62C374.632 2.96432 378.837 3.30856 380.675 6.80199V219.914C380.675 226.812 378.116 226.812 374.581 226.812H373.719V229.808H391.001V226.812H390.139C386.597 226.812 384.045 226.812 384.045 219.914V14.6558L478.972 219.704C479.719 222.26 479.617 224.102 478.672 225.186C477.23 226.837 473.848 226.831 470.574 226.818H468.966V229.814H505.928L505.909 226.844L505.079 226.818L505.073 226.812Z" fill="white"/>
<path d="M727.518 158.148C705.82 206.597 681.487 222.974 638.232 222.974C608.697 222.974 580.331 210.626 558.372 188.205C536.782 166.161 524.204 136.403 523.866 106.556C523.566 79.7433 533.087 54.9068 550.688 36.6237C568.442 18.1748 592.769 8.01959 619.182 8.01959C660.919 8.01959 700.97 33.8697 721.225 73.8657L721.436 74.2801H733.969L733.567 73.2346C716.401 28.7507 675.105 0 628.353 0C598.519 0 570.363 12.0421 549.073 33.9143C527.784 55.7802 516.055 84.703 516.055 115.341C516.055 145.978 527.72 174.978 548.907 196.773C570.356 218.843 599.189 231 630.095 231C677.115 231 708.5 209.555 728.794 160.698" fill="white"/>
</g>
<defs>
<clipPath id="clip0_595_130">
<rect width="823.331" height="231" fill="white" transform="translate(0.333984)"/>
</clipPath>
</defs>
</svg>
